<?xml version="1.0" standalone="no"?>
<!DOCTYPE svg PUBLIC "-//W3C//DTD SVG 20010904//EN"
 "http://www.w3.org/TR/2001/REC-SVG-20010904/DTD/svg10.dtd">
<svg version="1.0" xmlns="http://www.w3.org/2000/svg"
 width="512.000000pt" height="512.000000pt" viewBox="0 0 512.000000 512.000000"
 preserveAspectRatio="xMidYMid meet">

<g transform="translate(0.000000,512.000000) scale(0.100000,-0.100000)"
fill="#000000" stroke="none">
<path d="M2028 4260 c-312 -49 -557 -302 -599 -618 -20 -149 15 -317 93 -450
45 -77 170 -201 245 -245 366 -212 821 -77 1003 298 51 105 70 187 70 311 0
166 -42 294 -143 431 -87 117 -242 219 -390 257 -76 20 -208 27 -279 16z m227
-225 c244 -64 405 -305 367 -550 -17 -110 -61 -196 -141 -276 -199 -198 -494
-198 -694 2 -79 79 -120 158 -139 266 -58 343 270 645 607 558z"/>
<path d="M1355 2545 c-234 -51 -419 -215 -503 -447 l-27 -73 -3 -364 c-2 -251
0 -372 8 -390 6 -15 24 -35 39 -44 27 -15 85 -17 655 -17 l626 0 32 29 c28 25
33 36 33 76 0 40 -5 51 -33 76 l-32 29 -560 0 -560 0 0 253 c0 326 12 382 108
503 48 61 134 120 216 148 60 21 76 21 781 21 l720 0 63 -23 c83 -30 135 -63
193 -124 55 -58 97 -73 144 -54 65 27 84 98 44 162 -58 94 -245 210 -384 239
-98 20 -1467 21 -1560 0z"/>
<path d="M3380 1963 c-28 -27 -35 -50 -140 -506 -60 -263 -110 -491 -110 -506
0 -38 32 -77 74 -91 42 -13 96 6 119 42 17 27 229 937 229 984 0 42 -17 71
-52 89 -45 23 -85 19 -120 -12z"/>
<path d="M2834 1837 c-29 -16 -368 -322 -394 -354 -30 -38 -27 -96 8 -132 38
-41 342 -313 372 -334 55 -38 148 -5 164 59 14 54 -10 86 -154 215 -77 68
-140 127 -140 130 0 3 63 63 141 133 77 70 145 140 150 154 32 84 -70 173
-147 129z"/>
<path d="M3764 1840 c-51 -20 -81 -101 -55 -148 5 -9 73 -73 150 -142 l141
-125 -87 -80 c-49 -44 -116 -107 -150 -141 -58 -56 -63 -64 -63 -103 0 -61 41
-101 104 -101 45 0 50 4 183 123 290 259 299 269 271 336 -14 34 -376 366
-416 382 -28 11 -50 11 -78 -1z"/>
</g>
</svg>
